<svg width="504" height="504" viewBox="0 0 504 504" fill="none" xmlns="http://www.w3.org/2000/svg">
<path fill-rule="evenodd" clip-rule="evenodd" d="M487.197 16.516C497.654 26.786 502.97 39.387 503.158 54.317H503.998V449.677H503.717C503.342 464.423 498.022 476.931 487.756 487.204C477.299 497.833 464.701 503.247 449.955 503.434H54.035C39.289 503.25 26.691 497.832 16.234 487.204C5.976 476.931 0.558 464.415 0 449.677V54.317C0.55859 39.387 5.97661 26.786 16.238 16.516C26.695 6.059 39.293 0.555 54.039 0H449.959C464.518 0.55469 476.932 6.0586 487.197 16.516H487.197ZM292.037 211.956C280.838 200.94 267.494 195.429 251.998 195.429C236.502 195.429 223.158 200.941 211.959 211.956C200.76 223.155 195.158 236.499 195.158 251.995C195.158 267.483 200.76 280.823 211.959 292.022C223.158 302.854 236.502 308.26 251.998 308.26C267.494 308.26 280.838 302.846 292.037 292.022C302.861 280.823 308.275 267.479 308.275 251.995C308.279 236.503 302.861 223.159 292.037 211.956Z" fill="black"/>
</svg>
