<svg width="504" height="505" viewBox="0 0 504 505" fill="none" xmlns="http://www.w3.org/2000/svg">
<path fill-rule="evenodd" clip-rule="evenodd" d="M178.083 375.48C178.083 361.101 173.043 348.878 162.958 338.792C152.7 328.522 140.47 323.394 126.282 323.394C111.911 323.394 99.4966 328.523 89.0436 338.792C78.9576 348.878 73.9306 361.093 73.9306 375.48C73.9306 390.039 78.9579 402.355 89.0436 412.441C99.5006 422.515 111.915 427.554 126.282 427.554C140.466 427.554 152.696 422.515 162.958 412.441C173.036 402.164 178.083 389.851 178.083 375.48ZM89.0356 163.23C99.4926 173.304 111.907 178.343 126.274 178.343C140.458 178.343 152.688 173.304 162.95 163.23C173.036 152.773 178.075 140.46 178.075 126.269C178.075 111.89 173.035 99.472 162.95 89.031C152.692 78.945 140.462 73.906 126.274 73.906C111.903 73.906 99.4886 78.9451 89.0356 89.031C78.9496 99.476 73.9226 111.89 73.9226 126.269C73.9226 140.831 78.9578 153.152 89.0356 163.23V163.23ZM430.636 377.71C430.636 363.339 425.596 351.108 415.523 341.034C405.066 330.764 392.652 325.636 378.285 325.636C364.101 325.636 351.773 330.765 341.324 341.034C331.238 351.108 326.199 363.335 326.199 377.71C326.199 392.28 331.238 404.597 341.324 414.683C351.769 424.757 364.094 429.796 378.285 429.796C392.844 429.796 405.254 424.757 415.523 414.683C425.597 404.597 430.636 392.281 430.636 377.71ZM503.722 53.76H503.995V450.24C503.811 464.799 498.393 477.299 487.757 487.756C477.304 498.401 464.796 503.818 450.234 504.002H54.324C39.383 503.818 26.785 498.4 16.523 487.764C6.07 477.303 0.558 464.803 0 450.241V53.761C0.55859 39.202 6.0703 26.792 16.527 16.523C26.785 6.07 39.386 0.558 54.324 0H450.234C464.796 0.55859 477.304 6.0703 487.757 16.516C498.21 26.786 503.534 39.2 503.722 53.762L503.722 53.76ZM288.952 215.31C278.878 205.052 266.651 199.912 252.276 199.912C237.901 199.912 225.577 205.053 215.315 215.31C205.045 225.396 199.917 237.619 199.917 251.998C199.917 266.557 205.045 278.885 215.315 288.959C225.573 299.045 237.901 304.084 252.276 304.084C266.651 304.084 278.878 299.045 288.952 288.959C299.038 278.502 304.077 266.189 304.077 251.998C304.077 237.627 299.03 225.396 288.952 215.31ZM415.522 89.04C405.252 78.954 392.834 73.915 378.284 73.915C364.1 73.915 351.772 78.9541 341.323 89.04C331.237 99.485 326.198 111.899 326.198 126.278C326.198 140.837 331.237 153.153 341.323 163.239C351.768 173.313 364.093 178.352 378.284 178.352C392.843 178.352 405.253 173.313 415.522 163.239C425.596 153.153 430.635 140.841 430.635 126.278C430.635 111.899 425.595 99.489 415.522 89.04V89.04Z" fill="black"/>
</svg>
