<svg width="505" height="505" viewBox="0 0 505 505" fill="none" xmlns="http://www.w3.org/2000/svg">
<path fill-rule="evenodd" clip-rule="evenodd" d="M178.076 375.762C178.076 361.391 173.049 349.071 162.963 338.801C152.693 328.531 140.463 323.403 126.275 323.403C111.904 323.403 99.4898 328.532 89.0448 338.801C78.9588 349.071 73.9198 361.387 73.9198 375.762C73.9198 390.137 78.9589 402.364 89.0448 412.45C99.4898 422.524 111.904 427.563 126.275 427.563C140.459 427.563 152.689 422.524 162.963 412.45C173.041 402.36 178.076 390.13 178.076 375.762ZM126.275 199.912C111.904 199.912 99.4898 205.053 89.0448 215.31C78.9588 225.58 73.9198 237.896 73.9198 252.283C73.9198 266.654 78.9589 278.885 89.0448 288.959C99.4898 299.045 111.904 304.084 126.275 304.084C140.459 304.084 152.689 299.045 162.963 288.959C173.049 278.885 178.076 266.658 178.076 252.283C178.076 237.904 173.049 225.584 162.963 215.31C152.693 205.052 140.463 199.912 126.275 199.912ZM126.275 74.202C111.904 74.202 99.4898 79.3309 89.0448 89.6C78.9588 99.686 73.9198 111.901 73.9198 126.288C73.9198 140.847 78.9589 153.163 89.0448 163.249C99.4898 173.323 111.904 178.362 126.275 178.362C140.459 178.362 152.689 173.323 162.963 163.249C173.049 152.792 178.076 140.479 178.076 126.288C178.076 111.909 173.049 99.686 162.963 89.6C152.693 79.33 140.463 74.202 126.275 74.202ZM430.645 378.002C430.645 363.631 425.606 351.303 415.52 341.041C405.262 330.771 392.844 325.643 378.282 325.643C364.098 325.643 351.782 330.772 341.321 341.041C331.247 351.299 326.208 363.627 326.208 378.002C326.208 392.377 331.247 404.604 341.321 414.69C351.778 424.764 364.091 429.803 378.282 429.803C392.661 429.803 405.067 424.764 415.52 414.69C425.606 404.604 430.645 392.374 430.645 378.002ZM503.719 54.312H504.004V450.242C503.82 464.801 498.402 477.301 487.766 487.758C477.305 498.403 464.805 503.82 450.243 504.004H54.313C39.383 503.82 26.782 498.402 16.512 487.766C6.05899 477.305 0.559 464.805 0 450.243V54.313C0.55859 39.383 6.0586 26.782 16.516 16.512C26.786 6.071 39.387 0.559 54.313 0H450.243C464.805 0.55859 477.305 6.0703 487.766 16.516C498.219 26.786 503.536 39.387 503.719 54.313L503.719 54.312ZM415.52 215.312C405.262 205.054 392.844 199.914 378.282 199.914C364.098 199.914 351.782 205.055 341.321 215.312C331.247 225.582 326.208 237.898 326.208 252.285C326.208 266.656 331.247 278.887 341.321 288.961C351.778 299.047 364.091 304.086 378.282 304.086C392.661 304.086 405.067 299.047 415.52 288.961C425.606 278.887 430.645 266.656 430.645 252.285C430.645 237.898 425.606 225.586 415.52 215.312ZM415.52 89.602C405.063 79.332 392.661 74.204 378.282 74.204C364.098 74.204 351.782 79.3329 341.321 89.602C331.247 99.688 326.208 111.903 326.208 126.29C326.208 140.849 331.247 153.165 341.321 163.251C351.778 173.325 364.091 178.364 378.282 178.364C392.852 178.364 405.262 173.325 415.52 163.251C425.606 153.165 430.645 140.853 430.645 126.29C430.645 111.899 425.606 99.688 415.52 89.602Z" fill="black"/>
</svg>
