<svg width="505" height="505" viewBox="0 0 505 505" fill="none" xmlns="http://www.w3.org/2000/svg">
<path fill-rule="evenodd" clip-rule="evenodd" d="M89.0417 163.234C99.3077 173.308 111.538 178.347 125.722 178.347C140.281 178.347 152.691 173.308 162.956 163.234C173.042 153.148 178.077 140.836 178.077 126.273C178.077 111.894 173.042 99.671 162.956 89.585C152.507 79.128 140.093 73.897 125.722 73.897C111.538 73.897 99.3077 79.1275 89.0417 89.585C78.9557 99.671 73.9208 111.886 73.9208 126.273C73.9247 140.464 78.9637 152.781 89.0417 163.234ZM430.362 377.714C430.362 363.343 425.233 351.112 414.964 341.038C404.886 330.768 392.659 325.64 378.284 325.64C364.1 325.64 351.78 330.769 341.323 341.038C331.245 351.112 326.202 363.339 326.202 377.714C326.202 392.284 331.241 404.601 341.323 414.687C351.772 424.761 364.093 429.8 378.284 429.8C392.655 429.8 404.886 424.761 414.964 414.687C425.234 404.414 430.362 392.089 430.362 377.714ZM487.764 16.514C498.217 26.784 503.537 39.198 503.721 53.76H504.002V450.24C503.818 464.799 498.4 477.299 487.764 487.756C477.307 498.401 464.803 503.818 450.241 504.002H53.761C39.202 503.818 26.792 498.4 16.527 487.764C6.066 477.303 0.558 464.803 0 450.241V53.761C0.55859 39.202 6.0664 26.792 16.52 16.523C26.786 6.07 39.2 0.558 53.762 0H450.242C464.804 0.55859 477.308 6.0703 487.765 16.516L487.764 16.514ZM288.964 215.314C278.886 205.056 266.566 199.916 252.003 199.916C237.632 199.916 225.401 205.057 215.323 215.314C205.053 225.584 199.925 237.9 199.925 252.287C199.925 266.658 205.054 278.889 215.323 288.963C225.401 299.049 237.628 304.088 252.003 304.088C266.187 304.088 278.507 299.049 288.964 288.963C299.05 278.889 304.085 266.662 304.085 252.287C304.081 237.9 299.042 225.588 288.964 215.314Z" fill="black"/>
</svg>
