<svg width="505" height="504" viewBox="0 0 505 504" fill="none" xmlns="http://www.w3.org/2000/svg">
<path fill-rule="evenodd" clip-rule="evenodd" d="M88.4844 162.961C98.9414 173.231 111.347 178.359 125.722 178.359C140.281 178.359 152.601 173.23 162.683 162.961C172.761 152.887 177.804 140.563 177.804 126C177.804 111.629 172.765 99.3981 162.683 89.3121C152.226 79.2381 139.91 74.1991 125.722 74.1991C111.347 74.1991 98.9374 79.2382 88.4844 89.3121C78.4064 99.3981 73.3634 111.621 73.3634 126C73.3634 140.559 78.4025 152.887 88.4844 162.961V162.961ZM414.964 340.761C404.698 330.687 392.468 325.648 378.284 325.648C363.909 325.648 351.495 330.687 341.046 340.761C330.968 351.218 325.925 363.531 325.925 377.722C325.925 392.093 330.964 404.324 341.046 414.41C351.495 424.68 363.909 429.808 378.284 429.808C392.468 429.808 404.694 424.679 414.964 414.41C425.042 404.324 430.085 392.101 430.085 377.722C430.081 363.531 425.042 351.214 414.964 340.761ZM503.444 53.7611H504.003V450.241C503.632 464.8 498.124 477.21 487.483 487.479C477.217 498.108 464.62 503.624 449.682 503.995L53.762 503.999C39.203 503.628 26.696 498.112 16.242 487.483C5.789 477.217 0.375 464.803 0 450.241V53.761C0.375 39.199 5.7891 26.691 16.238 16.238C26.695 5.785 39.199 0.371 53.761 0H449.681C464.24 0.37109 476.747 5.7852 487.201 16.238C497.838 26.691 503.252 39.199 503.439 53.761L503.444 53.7611Z" fill="black"/>
</svg>
