<svg width="504" height="504" viewBox="0 0 504 504" fill="none" xmlns="http://www.w3.org/2000/svg">
<path fill-rule="evenodd" clip-rule="evenodd" d="M89.0376 338.234C78.7676 348.504 73.6396 360.734 73.6396 374.922C73.6396 389.481 78.7685 401.891 89.0376 412.16C99.3076 422.234 111.624 427.273 125.999 427.273C140.374 427.273 152.601 422.234 162.687 412.16C172.761 401.703 177.8 389.289 177.8 374.922C177.8 360.738 172.76 348.508 162.687 338.234C152.601 328.16 140.371 323.117 125.999 323.117C111.627 323.117 99.3076 328.16 89.0376 338.234ZM89.0376 162.954C99.3076 173.212 111.624 178.352 125.999 178.352C140.374 178.352 152.601 173.211 162.687 162.954C172.761 152.684 177.8 140.368 177.8 125.993C177.8 111.614 172.76 99.3909 162.687 89.3049C152.601 79.2189 140.378 74.1919 125.999 74.1919C111.624 74.1958 99.3076 79.231 89.0376 89.3169C78.7676 99.4029 73.6396 111.618 73.6396 126.005C73.6396 140.556 78.7685 152.876 89.0376 162.954ZM414.958 340.474C404.7 330.4 392.372 325.361 377.997 325.361C363.622 325.361 351.306 330.4 341.036 340.474C330.766 350.56 325.638 362.783 325.638 377.162C325.638 391.721 330.766 404.037 341.036 414.123C351.306 424.393 363.622 429.521 377.997 429.521C392.556 429.521 404.884 424.392 414.958 414.123C425.228 404.037 430.356 391.725 430.356 377.162C430.356 362.783 425.227 350.553 414.958 340.474ZM503.157 53.7539H503.996V449.674H503.723C503.344 464.42 498.024 476.928 487.75 487.201C477.305 497.83 464.707 503.244 449.949 503.431L54.039 503.427C39.293 503.243 26.695 497.825 16.238 487.197C5.968 476.927 0.558 464.412 0 449.674V53.754C0.55859 39.195 5.9688 26.785 16.238 16.516C26.695 6.059 39.293 0.555 54.039 0H449.959C464.525 0.55469 476.939 6.0586 487.197 16.516C497.654 26.786 502.967 39.2 503.158 53.754L503.157 53.7539ZM414.958 162.954C425.228 152.868 430.356 140.556 430.356 125.993C430.356 111.614 425.227 99.3909 414.958 89.3049C404.7 79.2189 392.372 74.1919 377.997 74.1919C363.622 74.1958 351.306 79.231 341.036 89.3169C330.766 99.4029 325.638 111.618 325.638 126.005C325.638 140.564 330.766 152.88 341.036 162.966C351.306 173.224 363.622 178.364 377.997 178.364C392.556 178.356 404.884 173.216 414.958 162.954Z" fill="black"/>
</svg>
